<svg viewBox="0 0 1600 1000" xmlns="http://www.w3.org/2000/svg" role="img" aria-label="Prior auth automation visual">
  <defs>
    <linearGradient id="paWarmBg" x1="0" y1="0" x2="1" y2="1">
      <stop offset="0" stop-color="#3b071a"/>
      <stop offset="0.34" stop-color="#8f1d2c"/>
      <stop offset="0.68" stop-color="#ff6b35"/>
      <stop offset="1" stop-color="#f9c74f"/>
    </linearGradient>
    <linearGradient id="paNight" x1="0" y1="0" x2="1" y2="1">
      <stop offset="0" stop-color="#241124"/>
      <stop offset="1" stop-color="#073b3a"/>
    </linearGradient>
    <linearGradient id="paPaper" x1="0" y1="0" x2="1" y2="1">
      <stop offset="0" stop-color="#ffffff"/>
      <stop offset="1" stop-color="#fff4dd"/>
    </linearGradient>
    <linearGradient id="paTeal" x1="0" y1="0" x2="1" y2="1">
      <stop offset="0" stop-color="#8fffe8"/>
      <stop offset="1" stop-color="#0f9f8a"/>
    </linearGradient>
    <linearGradient id="paGold" x1="0" y1="0" x2="1" y2="1">
      <stop offset="0" stop-color="#ffe66d"/>
      <stop offset="1" stop-color="#ff9f1c"/>
    </linearGradient>
    <linearGradient id="paMagenta" x1="0" y1="0" x2="1" y2="1">
      <stop offset="0" stop-color="#ff4f8b"/>
      <stop offset="1" stop-color="#bf1f51"/>
    </linearGradient>
    <filter id="paHeavyShadow" x="-25%" y="-25%" width="150%" height="150%">
      <feDropShadow dx="0" dy="30" stdDeviation="28" flood-color="#270510" flood-opacity="0.5"/>
    </filter>
    <filter id="paSmallShadow" x="-20%" y="-20%" width="140%" height="140%">
      <feDropShadow dx="0" dy="12" stdDeviation="12" flood-color="#270510" flood-opacity="0.35"/>
    </filter>
    <pattern id="paDots" width="44" height="44" patternUnits="userSpaceOnUse">
      <circle cx="6" cy="6" r="3" fill="#fff4b8" fill-opacity="0.18"/>
    </pattern>
  </defs>

  <rect width="1600" height="1000" fill="url(#paWarmBg)"/>
  <rect width="1600" height="1000" fill="url(#paDots)"/>

  <g opacity="0.72">
    <path d="M-120 150L260-60h340L-20 300z" fill="#ff9f1c" opacity="0.28"/>
    <path d="M1110-50h500v280l-710 410-190-104z" fill="#083b3b" opacity="0.34"/>
    <path d="M-120 820l530-306 241 134-530 306z" fill="#6a102b" opacity="0.28"/>
    <path d="M1030 790l620-357v318l-478 276z" fill="#f9c74f" opacity="0.2"/>
  </g>

  <g opacity="0.5" fill="none" stroke-linecap="round">
    <path d="M78 156h240l48 48h235l48-48h238l46 46h253l51-51h300" stroke="#ffe66d" stroke-width="7"/>
    <path d="M-44 640h275l62-62h233l68 68h271l72-72h244l82 82h374" stroke="#8fffe8" stroke-width="7"/>
    <path d="M72 884h330l58-58h298l50 50h284l52-52h374" stroke="#ff4f8b" stroke-width="6"/>
  </g>

  <g transform="translate(118 112) rotate(-8 660 380)" filter="url(#paHeavyShadow)">
    <rect x="86" y="118" width="610" height="648" rx="44" fill="#eadcc6" opacity="0.72"/>
    <rect x="130" y="80" width="640" height="660" rx="48" fill="url(#paPaper)" stroke="#fffaf0" stroke-width="6"/>
    <rect x="196" y="146" width="260" height="42" rx="21" fill="#ff6b35"/>
    <rect x="196" y="222" width="462" height="25" rx="12.5" fill="#415466" opacity="0.46"/>
    <rect x="196" y="276" width="382" height="25" rx="12.5" fill="#415466" opacity="0.36"/>
    <rect x="196" y="330" width="426" height="25" rx="12.5" fill="#415466" opacity="0.36"/>
    <rect x="196" y="430" width="168" height="168" rx="34" fill="#4a1027"/>
    <path d="M280 464v98M231 513h98" stroke="#8fffe8" stroke-width="28" stroke-linecap="round"/>
    <rect x="410" y="431" width="236" height="28" rx="14" fill="#ff9f1c"/>
    <rect x="410" y="488" width="286" height="24" rx="12" fill="#415466" opacity="0.34"/>
    <rect x="410" y="540" width="222" height="24" rx="12" fill="#415466" opacity="0.34"/>
  </g>

  <g transform="translate(515 236)" filter="url(#paHeavyShadow)">
    <rect x="0" y="0" width="770" height="536" rx="66" fill="url(#paNight)" stroke="#ffd166" stroke-width="7"/>
    <rect x="42" y="38" width="686" height="460" rx="44" fill="#160918" opacity="0.68"/>
    <path d="M42 112h686" stroke="#ff9f1c" stroke-width="20" opacity="0.82"/>
    <path d="M42 394h686" stroke="#0f9f8a" stroke-width="18" opacity="0.72"/>

    <text x="386" y="184" font-family="Arial, Helvetica, sans-serif" font-size="88" font-weight="900" text-anchor="middle" letter-spacing="-1.5" fill="#ffffff">PRIOR AUTH</text>
    <text x="386" y="285" font-family="Arial, Helvetica, sans-serif" font-size="82" font-weight="900" text-anchor="middle" letter-spacing="1.5" fill="#ffe66d">AUTOMATION</text>

    <g transform="translate(104 326)">
      <rect x="0" y="0" width="160" height="82" rx="28" fill="#fff4dd"/>
      <text x="80" y="55" font-family="Arial, Helvetica, sans-serif" font-size="34" font-weight="900" text-anchor="middle" fill="#4a1027">DATA</text>
    </g>
    <path d="M292 367h86" stroke="#ff6b35" stroke-width="16" stroke-linecap="round"/>
    <path d="M352 339l34 28-34 28" fill="none" stroke="#ff6b35" stroke-width="15" stroke-linecap="round" stroke-linejoin="round"/>
    <g transform="translate(390 326)">
      <rect x="0" y="0" width="188" height="82" rx="28" fill="#fff4dd"/>
      <text x="94" y="55" font-family="Arial, Helvetica, sans-serif" font-size="34" font-weight="900" text-anchor="middle" fill="#4a1027">RULES</text>
    </g>
  </g>

  <g transform="translate(1126 552) rotate(-10)" filter="url(#paHeavyShadow)">
    <circle cx="126" cy="126" r="118" fill="url(#paTeal)" stroke="#fffaf0" stroke-width="13"/>
    <path d="M66 128l47 47 86-103" fill="none" stroke="#fffaf0" stroke-width="30" stroke-linecap="round" stroke-linejoin="round"/>
    <path d="M22 21l208 208" stroke="#073b3a" stroke-width="12" opacity="0.18"/>
  </g>

  <g transform="translate(1198 174) rotate(9)" filter="url(#paSmallShadow)">
    <rect width="276" height="174" rx="36" fill="#fff7e8" stroke="#ffffff" stroke-width="5"/>
    <rect x="32" y="32" width="82" height="82" rx="24" fill="#4a1027"/>
    <path d="M73 48v50M48 73h50" stroke="#ff9f1c" stroke-width="17" stroke-linecap="round"/>
    <rect x="138" y="42" width="94" height="17" rx="8.5" fill="#415466" opacity="0.45"/>
    <rect x="138" y="78" width="112" height="15" rx="7.5" fill="#415466" opacity="0.32"/>
    <rect x="138" y="113" width="72" height="15" rx="7.5" fill="#415466" opacity="0.32"/>
  </g>

  <g transform="translate(1178 736) rotate(7)" filter="url(#paSmallShadow)">
    <rect width="318" height="158" rx="36" fill="#fff7e8" stroke="#ffffff" stroke-width="5"/>
    <rect x="34" y="34" width="78" height="78" rx="22" fill="#4a1027"/>
    <path d="M53 75l25 25 55-64" fill="none" stroke="#0f9f8a" stroke-width="16" stroke-linecap="round" stroke-linejoin="round"/>
    <rect x="146" y="42" width="126" height="17" rx="8.5" fill="#415466" opacity="0.45"/>
    <rect x="146" y="82" width="96" height="15" rx="7.5" fill="#415466" opacity="0.32"/>
    <circle cx="280" cy="50" r="13" fill="#ff4f8b"/>
  </g>

  <g transform="translate(78 712) rotate(-8)" filter="url(#paSmallShadow)">
    <rect width="348" height="170" rx="38" fill="#fff7e8" stroke="#ffffff" stroke-width="5"/>
    <rect x="34" y="36" width="86" height="86" rx="24" fill="#4a1027"/>
    <path d="M77 49l51 86H26z" fill="url(#paPink)"/>
    <rect x="158" y="48" width="126" height="18" rx="9" fill="#415466" opacity="0.45"/>
    <rect x="158" y="91" width="142" height="15" rx="7.5" fill="#415466" opacity="0.32"/>
    <rect x="158" y="128" width="84" height="15" rx="7.5" fill="#415466" opacity="0.32"/>
    <circle cx="304" cy="50" r="14" fill="#ff4f8b"/>
  </g>

  <g transform="translate(110 292) rotate(7)" filter="url(#paSmallShadow)">
    <rect width="318" height="164" rx="38" fill="#fff7e8" stroke="#ffffff" stroke-width="5"/>
    <rect x="34" y="34" width="80" height="80" rx="24" fill="#4a1027"/>
    <circle cx="74" cy="72" r="30" fill="url(#paGold)"/>
    <path d="M74 46v56M46 74h56" stroke="#4a1027" stroke-width="14" stroke-linecap="round"/>
    <rect x="146" y="44" width="124" height="17" rx="8.5" fill="#415466" opacity="0.45"/>
    <rect x="146" y="84" width="98" height="15" rx="7.5" fill="#415466" opacity="0.32"/>
    <circle cx="282" cy="46" r="13" fill="#0f9f8a"/>
  </g>

  <g opacity="0.86" filter="url(#paGlow)">
    <path d="M420 308c126 20 207 62 268 124" stroke="#ffe66d" stroke-width="13" fill="none" stroke-linecap="round"/>
    <path d="M402 778c150-28 244-92 318-184" stroke="#ff4f8b" stroke-width="13" fill="none" stroke-linecap="round"/>
    <path d="M1054 350c95-90 182-124 294-115" stroke="#8fffe8" stroke-width="13" fill="none" stroke-linecap="round"/>
    <path d="M1198 758c-84-16-148-60-204-134" stroke="#ffe66d" stroke-width="13" fill="none" stroke-linecap="round"/>
  </g>
</svg>
